PathFileType	4	(X/Y/Z)	C:/Users/opensim2020/Desktop/walking_exp_matlab/subject03_walking07_straight_02.trc																																																																																																																																								
DataRate	CameraRate	NumFrames	NumMarkers	Units	OrigDataRate	OrigDataStartFrame	OrigNumFrames																																																																																																																																				
100	100	9	46	mm	100	1593	252																																																																																																																																				
Frame#	Time	LFHD			RFHD			LBHD			RBHD			C7			T10			CLAV			STRN			RBAK			LSHO			LUPA			LELB			LFRM			LWRA			LWRB			LFIN			RSHO			RUPA			RELB			RFRM			RWRA			RWRB			RFIN			LASI			RASI			LPSI			RPSI			LTHI			LKNE			LTIB			LANK			LHEE			LTOE			RTHI			RKNE			RTIB			RANK			RHEE			RTOE			*39			*40			*41			*42			*43			*44			*45		
		X1	Y1	Z1	X2	Y2	Z2	X3	Y3	Z3	X4	Y4	Z4	X5	Y5	Z5	X6	Y6	Z6	X7	Y7	Z7	X8	Y8	Z8	X9	Y9	Z9	X10	Y10	Z10	X11	Y11	Z11	X12	Y12	Z12	X13	Y13	Z13	X14	Y14	Z14	X15	Y15	Z15	X16	Y16	Z16	X17	Y17	Z17	X18	Y18	Z18	X19	Y19	Z19	X20	Y20	Z20	X21	Y21	Z21	X22	Y22	Z22	X23	Y23	Z23	X24	Y24	Z24	X25	Y25	Z25	X26	Y26	Z26	X27	Y27	Z27	X28	Y28	Z28	X29	Y29	Z29	X30	Y30	Z30	X31	Y31	Z31	X32	Y32	Z32	X33	Y33	Z33	X34	Y34	Z34	X35	Y35	Z35	X36	Y36	Z36	X37	Y37	Z37	X38	Y38	Z38	X39	Y39	Z39	X40	Y40	Z40	X41	Y41	Z41	X42	Y42	Z42	X43	Y43	Z43	X44	Y44	Z44	X45	Y45	Z45	X46	Y46	Z46
																																																																																																																																											
127	1.26	103.74017	1611.63489	930.08795	89.84009	1620.41187	1062.05835	-27.51286	1580.02234	921.88605	-36.43677	1587.82642	1052.38745	-74.32555	1419.38696	979.68103	-111.16078	1105.00513	982.83917	45.41444	1341.29077	992.35107	87.60368	1177.17822	991.27631	-138.33214	1244.60205	1073.56238	16.28247	1377.18359	833.6369	40.9819	1184.12915	760.82654	72.14378	1064.73877	751.73053	122.86247	945.32043	761.96313	156.14423	833.20691	798.95917	148.09816	835.37823	743.45337	182.79883	760.53241	758.05402	-13.55231	1367.052	1147.39648	-13.25493	1144.07751	1219.42896	5.36074	1032.41919	1231.7301	24.92473	896.89563	1234.07251	57.52282	802.16327	1199.60474	26.19391	796.29993	1243.34851	50.56837	725.33759	1232.56067	64.1786	945.49878	875.96002	49.32504	941.82739	1113.17053	-100.28915	965.25464	918.44977	-108.40725	965.40692	1067.0105	11.31049	642.44318	839.64844	13.90966	465.01392	880.54541	-43.08369	276.15045	879.62805	-65.58337	66.48375	923.07373	-107.85855	32.02848	958.04791	85.62956	29.84452	954.9201	57.07664	646.19263	1159.46753	124.03278	478.34555	1137.3894	8.25145	326.95178	1132.72876	-121.1728	157.19835	1083.20715	-172.59482	151.12737	1026.52454	-26.77105	52.62448	1076.18408	NaN	NaN	NaN	NaN	NaN	NaN	NaN	NaN	NaN	NaN	NaN	NaN	NaN	NaN	NaN	NaN	NaN	NaN	NaN	NaN	NaN
128	1.27	112.93367	1611.03381	930.60638	98.92774	1619.69629	1062.55774	-18.35312	1579.82263	922.1568	-27.49706	1587.396	1052.68689	-65.45255	1419.0415	979.75909	-102.54741	1104.60205	982.53107	54.21585	1340.80078	992.54016	96.25919	1176.69775	991.12213	-129.7527	1244.12939	1073.24036	25.26256	1377.09021	833.91736	51.60899	1184.71313	760.57416	84.71101	1065.84607	751.3454	137.9649	947.65863	762.01971	173.59268	836.37335	799.55219	165.54755	838.27094	744.0863	201.92108	764.31445	758.65698	-5.05871	1366.28589	1147.50854	-6.72116	1143.3811	1219.41284	10.77744	1031.58667	1231.85413	29.36873	895.90356	1234.13123	61.63765	800.98877	1199.91943	29.86317	795.30042	1243.21082	53.80494	724.26953	1232.77283	72.81037	944.95947	875.50128	58.26507	941.4303	1112.87952	-91.80116	964.52356	918.32483	-99.67167	964.56293	1066.88672	18.18761	641.79303	839.92615	18.4851	464.49329	880.51874	-40.40574	276.19653	879.65137	-65.19969	66.72594	923.24023	-107.41615	32.56663	958.37213	85.89285	29.78869	955.08258	69.68941	646.86597	1159.07214	139.19501	480.10498	1136.41467	28.83607	324.05142	1131.87488	-93.87347	149.16774	1082.38708	-145.21704	140.49991	1025.9469	5.90985	50.04332	1075.07141	NaN	NaN	NaN	NaN	NaN	NaN	NaN	NaN	NaN	NaN	NaN	NaN	NaN	NaN	NaN	NaN	NaN	NaN	NaN	NaN	NaN
129	1.28	122.18934	1610.43384	931.16833	107.98319	1618.91516	1063.07898	-9.2031	1579.49036	922.47357	-18.45714	1586.90344	1052.98438	-56.56173	1418.55615	979.88	-93.88884	1104.05896	982.30426	62.99513	1340.19177	992.7605	104.91205	1176.08398	991.05042	-121.13869	1243.48779	1072.89746	34.29501	1376.88013	834.24017	62.21093	1185.09534	760.42462	96.85518	1066.81201	750.94824	152.87973	949.97394	762.02228	191.10909	839.59149	800.10645	182.68291	841.09436	744.70911	220.7542	767.97388	759.41547	3.41807	1365.57239	1147.65674	-0.06057	1142.53455	1219.46155	16.33087	1030.62927	1232.03064	33.90678	894.81146	1234.19263	65.77898	799.73328	1200.08081	33.59227	794.26624	1243.11584	57.23299	723.11139	1232.82983	81.35818	944.41162	875.04938	67.1543	940.94171	1112.6792	-83.31529	963.79639	918.22253	-90.93517	963.66217	1066.73572	24.71282	641.37982	840.00415	22.88901	463.97864	880.46375	-37.81565	276.19574	879.69171	-64.79639	67.01702	923.40729	-107.37892	33.05315	958.61108	86.04577	29.83274	954.76263	81.77558	647.44519	1158.75281	153.70309	481.69623	1135.58704	48.99786	321.22873	1131.01965	-65.76256	140.79066	1081.56079	-116.33572	129.30157	1025.17542	39.19042	47.60434	1074.23303	NaN	NaN	NaN	41.32227	1679.16589	974.83978	NaN	NaN	NaN	NaN	NaN	NaN	NaN	NaN	NaN	NaN	NaN	NaN	NaN	NaN	NaN
130	1.29	131.43214	1609.70166	931.77112	117.08751	1618.099	1063.68823	-0.07629	1579.02502	922.86475	-9.44926	1586.33081	1053.35669	-47.75142	1417.99731	980.09857	-85.23953	1103.42126	982.05719	71.81344	1339.5564	993.00854	113.70737	1175.42078	991.07281	-112.54731	1242.70874	1072.61426	43.34318	1376.51685	834.59985	72.98289	1185.39038	760.34406	109.01222	1067.66296	750.5332	167.39226	952.04407	762.05298	208.65089	842.97174	800.63306	199.51328	843.77332	745.40002	239.15233	771.53186	760.24066	11.99672	1364.69092	1147.90173	6.71197	1141.59717	1219.5304	22.05569	1029.59485	1232.20349	38.6069	893.65588	1234.17981	70.18187	798.47742	1200.23364	37.52137	793.05884	1242.93726	60.72521	721.83295	1232.80347	90.06221	943.7431	874.47107	76.12065	940.48114	1112.44507	-74.85143	963.06396	918.29498	-82.15334	962.68323	1066.61462	31.39797	640.75079	839.79608	27.23495	463.45935	880.46033	-35.21486	276.22235	879.68744	-64.4602	67.31831	923.65509	-107.08367	33.31438	959.02631	86.19575	29.77759	954.72949	93.33098	647.65491	1158.58374	167.64075	483.15945	1135.05933	69.24272	318.10132	1130.57837	-37.37357	132.60667	1080.54565	-87.28661	118.51127	1023.85181	72.66559	45.32428	1073.7041	NaN	NaN	NaN	49.6118	1680.63062	981.90021	NaN	NaN	NaN	NaN	NaN	NaN	NaN	NaN	NaN	NaN	NaN	NaN	NaN	NaN	NaN
131	1.3	140.57544	1608.92712	932.37646	126.1248	1617.1853	1064.22485	9.06318	1578.47937	923.34387	-0.38411	1585.67627	1053.81104	-38.7833	1417.36255	980.23297	-76.35445	1102.68835	981.9176	80.64453	1338.82471	993.26105	122.41564	1174.67786	991.10645	-103.82352	1241.78882	1072.34326	52.41102	1376.01672	834.95892	83.66598	1185.46265	760.29999	120.91194	1068.30151	750.20734	181.91426	953.90271	762.23804	225.6852	846.13641	801.26575	216.01202	846.32721	746.12592	257.24982	774.9895	761.19397	20.53315	1363.81812	1148.17468	13.65708	1140.54468	1219.63586	27.99647	1028.45667	1232.35669	43.53443	892.41187	1234.2113	74.5742	796.97919	1200.255	41.69825	791.78131	1242.75134	64.50205	720.40741	1232.63123	98.5537	943.02832	874.01129	85.0759	939.97711	1112.25146	-66.13962	962.24823	918.20862	-73.27406	961.74384	1066.53772	37.50938	640.21594	839.70905	31.67152	462.94702	880.46722	-32.5149	276.20114	879.82062	-64.13205	67.66666	923.90332	-107.07653	33.84251	959.18744	86.36514	29.70352	954.73743	105.26763	648.04773	1159.04797	180.75351	484.3403	1134.53015	89.02085	314.97562	1130.00354	-8.16091	124.31693	1079.69739	-57.16716	107.62566	1022.698	106.36934	43.29815	1073.55396	NaN	NaN	NaN	61.06205	1682.0531	972.09906	NaN	NaN	NaN	NaN	NaN	NaN	NaN	NaN	NaN	NaN	NaN	NaN	NaN	NaN	NaN
132	1.31	149.76939	1608.0874	933.03162	135.22099	1616.23035	1064.89331	18.29878	1577.81104	923.76868	8.61185	1584.85767	1054.34546	-29.93974	1416.57849	980.58746	-67.57278	1101.85266	981.82422	89.58778	1338.00623	993.58478	131.30524	1173.86426	991.19849	-95.12988	1240.78992	1072.13647	61.55259	1375.45728	835.38269	94.39885	1185.47351	760.40063	132.94562	1068.84802	749.97864	195.96814	955.68085	762.37543	242.34914	849.25842	801.91193	232.1347	848.67365	746.94891	274.95276	778.33173	762.25873	29.14677	1362.67114	1148.47705	20.69287	1139.43323	1219.81702	34.11614	1027.24573	1232.4856	48.68179	891.08521	1234.22766	79.28028	795.60352	1200.28088	46.06607	790.4408	1242.56091	68.3495	718.95746	1232.36609	106.72408	942.20172	873.70477	94.18102	939.4281	1111.97205	-57.60254	961.57104	918.41187	-64.30238	960.84125	1066.56567	43.82882	639.5918	840.13434	36.2304	462.40787	880.62579	-29.79604	276.15088	879.92615	-63.69422	68.03323	924.15393	-106.97095	34.28706	959.41461	86.36788	29.82629	954.4306	116.35484	648.35272	1159.09814	193.14578	485.24188	1134.19604	108.45466	311.82614	1129.55579	21.54345	116.20718	1078.96301	-26.31705	96.92441	1021.64594	140.61868	41.31033	1073.61328	NaN	NaN	NaN	70.88094	1683.08777	972.84357	NaN	NaN	NaN	NaN	NaN	NaN	NaN	NaN	NaN	NaN	NaN	NaN	NaN	NaN	NaN
133	1.32	158.95671	1607.15625	933.70453	144.27583	1615.18787	1065.54871	27.43241	1577.05566	924.32764	17.72099	1583.93176	1054.81189	-20.92727	1415.69043	980.8634	-58.60178	1100.94922	981.91632	98.49374	1337.10242	993.97455	140.30948	1172.98108	991.28534	-86.28014	1239.72461	1071.9519	70.71427	1374.75146	835.82678	105.21223	1185.50183	760.48193	144.80969	1069.27771	749.87012	209.86966	957.36438	762.51263	258.73019	852.31555	802.65936	248.01842	850.9032	747.83154	292.30753	781.57501	763.48584	37.755	1361.45789	1148.77942	27.90162	1138.22046	1220.00745	40.51237	1025.94287	1232.59937	54.03138	889.69409	1234.20251	84.04144	794.06152	1200.17834	50.72251	788.9953	1242.35791	72.51466	717.36584	1232.01221	115.21001	941.25336	873.29767	103.37155	938.67786	1111.64832	-49.05699	960.91602	918.47821	-55.29122	960.0061	1066.68372	50.08305	638.90442	840.43665	40.83944	461.76746	880.91614	-27.18103	276.1254	880.15771	-63.25748	68.36891	924.41309	-106.85567	34.76407	959.68701	86.52501	29.73613	954.49408	127.00629	648.47174	1159.12061	204.91248	485.79858	1134.00903	127.67163	308.62234	1129.1991	51.94399	108.36958	1078.43567	5.74395	86.57871	1020.65302	174.76721	40.04128	1074.03894	NaN	NaN	NaN	78.38749	1676.22034	977.08209	NaN	NaN	NaN	NaN	NaN	NaN	NaN	NaN	NaN	NaN	NaN	NaN	NaN	NaN	NaN
134	1.33	168.09225	1606.24634	934.44409	153.36069	1614.03406	1066.30481	36.55576	1576.19263	924.94739	26.74513	1582.91772	1055.4187	-11.89156	1414.69055	981.14429	-49.61467	1099.98242	982.08838	107.52826	1336.10071	994.39185	149.4528	1172.03271	991.39368	-77.38443	1238.54321	1071.82214	79.9017	1373.97302	836.28308	115.95222	1185.31482	760.7373	156.65282	1069.6582	749.93408	223.59787	958.89252	762.86993	274.63187	855.18317	803.50037	263.41916	852.96179	748.83441	309.30341	784.70569	764.85565	46.40873	1360.26062	1149.1908	35.17164	1136.86938	1220.32361	47.05574	1024.56323	1232.71069	59.67142	888.19708	1234.10046	88.95333	792.42596	1199.89063	55.58411	787.5354	1242.15918	76.7879	715.70514	1231.57935	123.65946	940.22241	872.98193	112.70821	937.80316	1111.3562	-40.08615	960.03143	918.77832	-46.21824	959.16815	1066.85632	56.5695	638.16632	840.67065	45.44468	461.09421	881.2337	-24.58114	276.07187	880.36346	-63.08698	68.70305	924.664	-106.78448	35.43828	960.01337	86.69652	29.7219	954.55316	137.23021	648.21979	1159.39099	215.97247	485.99326	1133.81152	146.67038	305.38422	1128.99146	82.5705	100.96999	1077.91504	38.40116	76.90471	1019.56116	209.04788	39.16949	1074.78796	NaN	NaN	NaN	NaN	NaN	NaN	NaN	NaN	NaN	NaN	NaN	NaN	NaN	NaN	NaN	NaN	NaN	NaN	NaN	NaN	NaN
135	1.34	177.28699	1605.29077	935.16943	162.45479	1612.89355	1067.02258	45.75205	1575.28137	925.56293	35.79334	1581.81238	1056.08923	-2.7654	1413.61292	981.61505	-40.47388	1098.91931	982.38617	116.6545	1334.99792	994.80664	158.68297	1170.98193	991.53461	-68.38112	1237.2771	1071.74109	89.18966	1373.09973	836.75891	126.6982	1185.12915	760.94635	168.38254	1069.73438	750.05298	236.96022	960.26282	763.32648	290.14169	857.90631	804.46765	278.58841	854.89459	749.94202	325.86249	787.68671	766.34314	55.13691	1358.9563	1149.59729	42.55381	1135.55396	1220.61072	53.823	1023.13788	1232.80701	65.4399	886.71143	1233.99048	94.07492	790.78937	1199.66406	60.70058	786.06891	1241.94226	81.31664	714.02625	1231.10596	132.31393	939.12665	872.77679	122.13682	936.72412	1111.12817	-31.34344	959.41852	919.11981	-37.02456	958.31317	1067.19226	63.09811	637.36383	840.94153	49.85664	460.45724	881.47528	-22.1802	276.12125	880.50769	-62.74342	69.0676	924.90204	-106.71707	36.08109	960.31677	87.06958	29.32518	954.6109	146.87135	647.65009	1159.5249	226.44037	485.85434	1133.71204	165.40451	302.30658	1128.86353	113.69046	94.26299	1077.71753	71.2138	67.79921	1019.21985	243.30646	38.88934	1075.8573	NaN	NaN	NaN	96.74622	1674.34814	978.76416	NaN	NaN	NaN	NaN	NaN	NaN	NaN	NaN	NaN	NaN	NaN	NaN	NaN	NaN	NaN
